<svg style="margin: 5px 0 0 5px; width: 32px; height: 32px;" version="1.1" id="レイヤー_1" preserveAspectRatio="none" xmlns="http://www.w3.org/2000/svg" xmlns:xlink="http://www.w3.org/1999/xlink" x="0px"
	 y="0px" viewBox="0 0 33 33" style="enable-background:new 0 0 33 32;" xml:space="preserve">
<style type="text/css">
	.st0{
		fill: #f3f3f3;
	}
</style>
	<path class="st0" d="M11.7,0.2c0-0.1-0.2-0.2-0.3-0.2H7.6C7.4,0,7.3,0.1,7.2,0.2L0,22.5c0,0.1,0,0.2,0.1,0.3
		c0.1,0.1,0.2,0.1,0.3,0.1h3c0.2,0,0.3-0.1,0.3-0.2l2-6.1c0,0,1-3.3,1-3.3c0,0,0.7-2.1,0.7-2.1C8.2,8.6,9,6.1,9.5,4.7
		c0.4,1.3,1.1,3.4,1.8,5.8c0.5,1.5,0.9,2.7,1,3.1l0,0c0,0,0.9,2.8,0.9,2.8c0,0,2,6.3,2,6.3c0,0.2,0.2,0.3,0.3,0.3h3.1
		c0.1,0,0.2-0.1,0.3-0.1c0.1-0.1,0.1-0.2,0.1-0.3L11.7,0.2z"/>
</svg>